<?xml version="1.0" encoding="utf-8"?>
<!-- Generator: Adobe Illustrator 24.2.0, SVG Export Plug-In . SVG Version: 6.00 Build 0)  -->
<svg version="1.1" id="Capa_1" xmlns="http://www.w3.org/2000/svg" xmlns:xlink="http://www.w3.org/1999/xlink" x="0px" y="0px"
	 viewBox="0 0 925.9 578.3" style="enable-background:new 0 0 925.9 578.3;" xml:space="preserve">
<style type="text/css">
	.st0{fill:#CF7328;}
	.st1{fill:#5F2E10;}
	.st2{font-family:'Montserrat-Regular';}
	.st3{font-size:17.231px;}
	.st4{fill:none;stroke:#D2741D;stroke-miterlimit:10;}
	.st5{fill:#D2741D;}
	.st6{font-family:'Montserrat-BoldItalic';}
	.st7{font-size:11px;}
	.st8{font-family:'Montserrat-SemiBoldItalic';}
	.st9{font-size:7px;}
</style>
<path class="st0" d="M864.3,301.7h-630c-5,0-9-4-9-9v0c0-5,4-9,9-9h630c5,0,9,4,9,9v0C873.3,297.7,869.3,301.7,864.3,301.7z"/>
<text transform="matrix(1 0 0 1 216.1494 265.3853)" class="st1 st2 st3">1822</text>
<text transform="matrix(1 0 0 1 378.1489 265.3648)" class="st1 st2 st3">1850</text>
<text transform="matrix(1 0 0 1 504.3071 265.8433)" class="st1 st2 st3">1889</text>
<g>
	<text transform="matrix(1 0 0 1 549.1489 329.0069)" class="st1 st2 st3">1896</text>
</g>
<text transform="matrix(1 0 0 1 846.1489 266.0069)" class="st1 st2 st3">1997</text>
<line class="st4" x1="233.8" y1="274.7" x2="233.8" y2="283.7"/>
<line class="st4" x1="396.8" y1="274.7" x2="396.8" y2="283.7"/>
<g>
	<text transform="matrix(1 0 0 1 234.1489 328.3648)" class="st1 st2 st3">1825</text>
</g>
<line class="st4" x1="252.8" y1="301.7" x2="252.8" y2="310.7"/>
<line class="st4" x1="521.8" y1="274.7" x2="521.8" y2="283.7"/>
<line class="st4" x1="566.8" y1="301.7" x2="566.8" y2="310.7"/>
<line class="st4" x1="863.8" y1="274.7" x2="863.8" y2="283.7"/>
<text transform="matrix(1 0 0 1 207.8784 242.2134)" class="st5 st6 st7">Santiago</text>
<text transform="matrix(1 0 0 1 364.331 237.7134)" class="st5 st6 st7">Valparaíso</text>
<text transform="matrix(1 0 0 1 490.331 237.7134)" class="st5 st6 st7">Valparaíso</text>
<text transform="matrix(1 0 0 1 595.3071 265.8433)" class="st1 st2 st3">1902</text>
<line class="st4" x1="612.8" y1="274.7" x2="612.8" y2="283.7"/>
<text transform="matrix(1 0 0 1 581.331 237.7134)" class="st5 st6 st7">Valparaíso</text>
<text transform="matrix(1 0 0 1 841.0639 237.7134)" class="st5 st6 st7">Valdivia</text>
<text transform="matrix(1 0 0 1 220.8311 345.4644)" class="st5 st6 st7">Valparaíso</text>
<text transform="matrix(1 0 0 1 229.1485 419.2384)"><tspan x="0" y="0" class="st1 st8 st9">Andrés Blest</tspan><tspan x="0.9" y="8.4" class="st1 st8 st9">“Cervecería </tspan><tspan x="5.3" y="16.8" class="st1 st8 st9">Altamira”</tspan></text>
<text transform="matrix(1 0 0 1 211.3477 162.8868)" class="st1 st8 st9">“La Chimba”</text>
<text transform="matrix(1 0 0 1 368.0171 162.8868)" class="st1 st8 st9">Cerveza Cristal </text>
<text transform="matrix(1 0 0 1 372.376 419.2384)"><tspan x="0" y="0" class="st1 st8 st9">Carlos Anwandter</tspan><tspan x="11" y="8.4" class="st1 st8 st9">“Cervecería </tspan><tspan x="10.9" y="16.8" class="st1 st8 st9">Anwandter”</tspan></text>
<text transform="matrix(1 0 0 1 547.1929 419.2384)"><tspan x="0" y="0" class="st1 st8 st9">José Fisher</tspan><tspan x="-1.9" y="8.4" class="st1 st8 st9">“Cervecería </tspan><tspan x="5.3" y="16.8" class="st1 st8 st9">Austral”</tspan></text>
<text transform="matrix(1 0 0 1 528.4053 345.4644)" class="st5 st6 st7">Punta Arenas</text>
<g>
	<text transform="matrix(1 0 0 1 387.1489 329.0069)" class="st1 st2 st3">1851</text>
</g>
<line class="st4" x1="404.8" y1="301.7" x2="404.8" y2="310.7"/>
<text transform="matrix(1 0 0 1 376.4273 345.4644)" class="st5 st6 st7">Los Lagos</text>
<image style="overflow:visible;" width="300" height="300" xlink:href="3FAE3DD69E32A9A.png"  transform="matrix(0.18 0 0 0.18 225.3071 355.6929)">
</image>
<image style="overflow:visible;" width="300" height="300" xlink:href="3FAE3DD69E32A9E.png"  transform="matrix(0.18 0 0 0.18 378.3071 355.6929)">
</image>
<image style="overflow:visible;" width="300" height="300" xlink:href="3FAE3DD69E32A99.png"  transform="matrix(0.18 0 0 0.18 540.3071 355.6929)">
</image>
<image style="overflow:visible;" width="300" height="300" xlink:href="3FAE3DD69E32A9B.png"  transform="matrix(0.18 0 0 0.18 369.3071 166.6929)">
</image>
<image style="overflow:visible;" width="300" height="300" xlink:href="3FAE3DD69E32A98.png"  transform="matrix(0.18 0 0 0.18 207.3071 166.6929)">
</image>
<image style="overflow:visible;" width="300" height="300" xlink:href="3FAE3DD69E32AA6.png"  transform="matrix(0.18 0 0 0.18 585.3071 166.6929)">
</image>
<image style="overflow:visible;" width="300" height="300" xlink:href="3FAE3DD69E32AA9.png"  transform="matrix(0.18 0 0 0.18 495.3071 166.6929)">
</image>
<image style="overflow:visible;" width="300" height="300" xlink:href="3FAE3DD69E32AAA.png"  transform="matrix(0.18 0 0 0.18 837.3071 166.6929)">
</image>
<text transform="matrix(1 0 0 1 488.8819 140.2295)"><tspan x="0" y="0" class="st1 st8 st9">Carlos Anwandter</tspan><tspan x="7.4" y="8.4" class="st1 st8 st9">Compañía de </tspan><tspan x="-2.9" y="16.8" class="st1 st8 st9">Cerveza de Valdivia</tspan></text>
<text transform="matrix(1 0 0 1 579.5132 140.2295)"><tspan x="0" y="0" class="st1 st8 st9">Joaquín Plagemann</tspan><tspan x="-2.3" y="8.4" class="st1 st8 st9">“Fábrica Nacional de </tspan><tspan x="20.9" y="16.8" class="st1 st8 st9">Cerveza”</tspan></text>
<text transform="matrix(1 0 0 1 834.5474 140.2295)"><tspan x="0" y="0" class="st1 st8 st9">Armin Kunstmann</tspan><tspan x="5.4" y="8.4" class="st1 st8 st9">“Valdivia Ltda.”</tspan><tspan x="2.1" y="16.8" class="st1 st8 st9">(hoy Kunstmann)</tspan></text>
<image style="overflow:visible;" width="373" height="2195" xlink:href="3FAE3DD69E32AA8.png"  transform="matrix(0.2583 0 0 0.2583 77.3071 11.6929)">
</image>
</svg>
